<?xml version="1.0" encoding="UTF-8" standalone="no"?>
<svg
   xmlns:osb="http://www.openswatchbook.org/uri/2009/osb"
   xmlns:dc="http://purl.org/dc/elements/1.1/"
   xmlns:cc="http://creativecommons.org/ns#"
   xmlns:rdf="http://www.w3.org/1999/02/22-rdf-syntax-ns#"
   xmlns:svg="http://www.w3.org/2000/svg"
   xmlns="http://www.w3.org/2000/svg"
   xmlns:xlink="http://www.w3.org/1999/xlink"
   enable-background="new"
   id="svg64"
   version="1.1"
   fill="#000000"
   width="24px"
   viewBox="0 0 24 24"
   height="24px">
  <metadata
     id="metadata70">
    <rdf:RDF>
      <cc:Work
         rdf:about="">
        <dc:format>image/svg+xml</dc:format>
        <dc:type
           rdf:resource="http://purl.org/dc/dcmitype/StillImage" />
        <dc:title></dc:title>
      </cc:Work>
    </rdf:RDF>
  </metadata>
  <defs
     id="defs68">
    <linearGradient
       osb:paint="solid"
       id="linearGradient1600">
      <stop
         id="stop1598"
         offset="0"
         style="stop-color:#7575ff;stop-opacity:1;" />
    </linearGradient>
    <linearGradient
       osb:paint="solid"
       id="linearGradient1590">
      <stop
         id="stop1588"
         offset="0"
         style="stop-color:#6374e9;stop-opacity:1;" />
    </linearGradient>
    <linearGradient
       osb:paint="solid"
       id="Outlines">
      <stop
         id="stop1570"
         offset="0"
         style="stop-color:#002061;stop-opacity:1;" />
    </linearGradient>
    <linearGradient
       osb:paint="solid"
       id="linearGradient1560">
      <stop
         id="stop1558"
         offset="0"
         style="stop-color:#000000;stop-opacity:1;" />
    </linearGradient>
    <linearGradient
       id="linearGradient1553">
      <stop
         id="stop1551"
         offset="0"
         style="stop-color:#282828;stop-opacity:1;" />
    </linearGradient>
    <linearGradient
       osb:paint="solid"
       xlink:href="#linearGradient1527"
       id="Sides">
      <stop
         id="stop1539"
         offset="0"
         style="stop-color:#3366cc;stop-opacity:1;" />
    </linearGradient>
    <linearGradient
       id="linearGradient1535">
      <stop
         id="stop1533"
         offset="0"
         style="stop-color:#3366cc;stop-opacity:1;" />
    </linearGradient>
    <linearGradient
       id="linearGradient1527">
      <stop
         id="stop1525"
         offset="0"
         style="stop-color:#006cfc;stop-opacity:1;" />
    </linearGradient>
    <linearGradient
       id="linearGradient1515">
      <stop
         id="stop1513"
         offset="0"
         style="stop-color:#282828;stop-opacity:1;" />
    </linearGradient>
    <linearGradient
       id="linearGradient1509">
      <stop
         id="stop1507"
         offset="0"
         style="stop-color:#006cfc;stop-opacity:1;" />
    </linearGradient>
    <linearGradient
       id="linearGradient1497">
      <stop
         id="stop1495"
         offset="0"
         style="stop-color:#006cfc;stop-opacity:1;" />
    </linearGradient>
    <linearGradient
       id="linearGradient898">
      <stop
         id="stop896"
         offset="0"
         style="stop-color:#000000;stop-opacity:1;" />
    </linearGradient>
    <filter
       id="filter931"
       style="color-interpolation-filters:sRGB;">
      <feColorMatrix
         result="fbSourceGraphic"
         id="feColorMatrix929"
         values="0.21 0.72 0.072 0 0 0.21 0.72 0.072 0 0 0.21 0.72 0.072 0 0 0 0 0 1 0 " />
      <feColorMatrix
         id="feColorMatrix1041"
         values="0 0 0 -1 0 0 0 0 -1 0 0 0 0 -1 0 0 0 0 1 0"
         in="fbSourceGraphic"
         result="fbSourceGraphicAlpha" />
      <feColorMatrix
         in="fbSourceGraphic"
         values="1 0 0 0.2246 -0 0 1 0 0.2246 -0 0 0 1 0.2246 -0 0 0 0 1 0"
         id="feColorMatrix1043" />
    </filter>
    <filter
       id="filter935"
       style="color-interpolation-filters:sRGB;">
      <feColorMatrix
         result="fbSourceGraphic"
         id="feColorMatrix933"
         values="0.21 0.72 0.072 0 0 0.21 0.72 0.072 0 0 0.21 0.72 0.072 0 0 0 0 0 1 0 " />
      <feColorMatrix
         id="feColorMatrix1045"
         values="0 0 0 -1 0 0 0 0 -1 0 0 0 0 -1 0 0 0 0 1 0"
         in="fbSourceGraphic"
         result="fbSourceGraphicAlpha" />
      <feColorMatrix
         in="fbSourceGraphic"
         values="1 0 0 0.2246 -0 0 1 0 0.2246 -0 0 0 1 0.2246 -0 0 0 0 1 0"
         id="feColorMatrix1047" />
    </filter>
    <filter
       id="filter939"
       style="color-interpolation-filters:sRGB;">
      <feColorMatrix
         result="fbSourceGraphic"
         id="feColorMatrix937"
         values="0.21 0.72 0.072 0 0 0.21 0.72 0.072 0 0 0.21 0.72 0.072 0 0 0 0 0 1 0 " />
      <feColorMatrix
         id="feColorMatrix1053"
         values="0 0 0 -1 0 0 0 0 -1 0 0 0 0 -1 0 0 0 0 1 0"
         in="fbSourceGraphic"
         result="fbSourceGraphicAlpha" />
      <feColorMatrix
         in="fbSourceGraphic"
         values="1 0 0 0.2246 -0 0 1 0 0.2246 -0 0 0 1 0.2246 -0 0 0 0 1 0"
         id="feColorMatrix1055" />
    </filter>
    <filter
       id="filter943"
       style="color-interpolation-filters:sRGB;">
      <feColorMatrix
         result="fbSourceGraphic"
         id="feColorMatrix941"
         values="0.21 0.72 0.072 0 0 0.21 0.72 0.072 0 0 0.21 0.72 0.072 0 0 0 0 0 1 0 " />
      <feColorMatrix
         id="feColorMatrix1057"
         values="0 0 0 -1 0 0 0 0 -1 0 0 0 0 -1 0 0 0 0 1 0"
         in="fbSourceGraphic"
         result="fbSourceGraphicAlpha" />
      <feColorMatrix
         in="fbSourceGraphic"
         values="1 0 0 0.2246 -0 0 1 0 0.2246 -0 0 0 1 0.2246 -0 0 0 0 1 0"
         id="feColorMatrix1059" />
    </filter>
    <filter
       id="filter947"
       style="color-interpolation-filters:sRGB;">
      <feColorMatrix
         id="feColorMatrix945"
         values="0.21 0.72 0.072 0 0 0.21 0.72 0.072 0 0 0.21 0.72 0.072 0 0 0 0 0 1 0 " />
    </filter>
    <filter
       id="filter951"
       style="color-interpolation-filters:sRGB;">
      <feColorMatrix
         result="fbSourceGraphic"
         id="feColorMatrix949"
         values="0.21 0.72 0.072 0 0 0.21 0.72 0.072 0 0 0.21 0.72 0.072 0 0 0 0 0 1 0 " />
      <feColorMatrix
         id="feColorMatrix1049"
         values="0 0 0 -1 0 0 0 0 -1 0 0 0 0 -1 0 0 0 0 1 0"
         in="fbSourceGraphic"
         result="fbSourceGraphicAlpha" />
      <feColorMatrix
         in="fbSourceGraphic"
         values="1 0 0 0.2246 -0 0 1 0 0.2246 -0 0 0 1 0.2246 -0 0 0 0 1 0"
         id="feColorMatrix1051" />
    </filter>
    <filter
       id="filter955"
       style="color-interpolation-filters:sRGB;">
      <feColorMatrix
         id="feColorMatrix953"
         values="0.21 0.72 0.072 0 0 0.21 0.72 0.072 0 0 0.21 0.72 0.072 0 0 0 0 0 1 0 " />
    </filter>
    <filter
       id="filter959"
       style="color-interpolation-filters:sRGB;">
      <feColorMatrix
         id="feColorMatrix957"
         values="0.21 0.72 0.072 0 0 0.21 0.72 0.072 0 0 0.21 0.72 0.072 0 0 0 0 0 1 0 " />
    </filter>
  </defs>
  <g
     style="display:inline;filter:url(#filter1011)"
     id="layer4">
    <rect
       ry="1"
       rx="1"
       y="3.2615604"
       x="3.760797"
       height="16.477697"
       width="16.47846"
       id="rect1576"
       style="display:inline;opacity:1;fill:#3e63dd;fill-opacity:1;stroke:url(#linearGradient1572);stroke-width:0.1;stroke-miterlimit:4;stroke-dasharray:none;stroke-opacity:1;filter:url(#filter931)" />
    <path
       id="path1545"
       style="display:inline;fill:#3e63dd;fill-opacity:1;stroke:none;stroke-width:0.5;stroke-miterlimit:4;stroke-dasharray:none;stroke-opacity:1;filter:url(#filter935)"
       d="m 4,2.0000004 c -0.554,0 -1.0545156,0.2224844 -1.4160156,0.5839844 C 2.2224844,2.9454848 2,3.4460004 2,4.0000004 V 20 c 0,0.554 0.2224844,1.054516 0.5839844,1.416016 C 2.9454844,21.777516 3.446,22 4,22 h 16 c 0.554,0 1.054516,-0.222484 1.416016,-0.583984 C 21.777516,21.054516 22,20.554 22,20 V 4.0000004 C 22,3.4460004 21.777516,2.9454848 21.416016,2.5839848 21.054516,2.2224848 20.554,2.0000004 20,2.0000004 Z m 2,1.5 h 12 c 0.4155,0 0.791375,0.166375 1.0625,0.4375 0.271125,0.271125 0.4375,0.647 0.4375,1.0625 V 17 c 0,0.4155 -0.166375,0.791375 -0.4375,1.0625 C 18.791375,18.333625 18.4155,18.5 18,18.5 H 6 C 5.5845,18.5 5.208625,18.333625 4.9375,18.0625 4.666375,17.791375 4.5,17.4155 4.5,17 V 5.0000004 c 0,-0.4155 0.166375,-0.791375 0.4375,-1.0625 0.271125,-0.271125 0.647,-0.4375 1.0625,-0.4375 z" />
    <path
       id="path2405"
       d="M 19.0625,3.9375 19.5,5 v 12 l -0.4375,1.0625 2.353516,3.353516 L 22,20 V 4 L 21.416016,2.5839844 Z"
       style="display:inline;fill:#000000;fill-opacity:0.47058824;stroke:none;stroke-width:0.1;stroke-linecap:butt;stroke-linejoin:miter;stroke-miterlimit:4;stroke-dasharray:none;stroke-opacity:1;filter:url(#filter939)" />
    <path
       id="path892"
       d="M 19.0625,18.0625 18,18.5 H 6 L 4.9375,18.0625 2.5839844,21.416016 4,22 20.386719,21.96289 21.416016,21.416015 Z"
       style="display:inline;fill:#000000;fill-opacity:0.39215687;stroke:none;stroke-width:0.1;stroke-linecap:butt;stroke-linejoin:miter;stroke-miterlimit:4;stroke-dasharray:none;stroke-opacity:0.88353415;paint-order:stroke fill markers;filter:url(#filter943)" />
    <path
       id="path2374"
       d="M 2.5839844,21.416016 2,20 2.0841847,3.4218383 2.5845,2.5845 4.938375,3.938375 4.5,5 v 12 l 0.4375,1.0625 z"
       style="display:inline;fill:#3d0088;fill-opacity:0;stroke:none;stroke-width:0.1;stroke-linecap:butt;stroke-linejoin:miter;stroke-miterlimit:4;stroke-dasharray:none;stroke-opacity:1;filter:url(#filter947)" />
    <path
       id="path2405-2"
       d="m 2.5836016,2.5843651 2.354391,1.3543906 1.061625,-0.438375 H 17.999618 l 1.0625,0.4375 2.353516,-1.3535156 -1.416016,-0.5839844 H 3.9996176 Z"
       style="display:inline;fill:#000000;fill-opacity:0.16425121;stroke:none;stroke-width:0.1;stroke-linecap:butt;stroke-linejoin:miter;stroke-miterlimit:4;stroke-dasharray:none;stroke-opacity:1;filter:url(#filter951)" />
    <g
       style="display:inline;fill:url(#Outlines);fill-opacity:1;stroke:none;stroke-opacity:1;filter:url(#filter955)"
       id="g4794">
      <path
         transform="matrix(1.2933876,0,0,1.3167613,1.7844315,-5.0546592)"
         id="path152"
         d="m 5.7115454,10.25 c 0,-0.125 -0.125,-0.25 -0.25,-0.25 H 5.288625 c -0.125,0 -0.25,0.125 -0.25,0.25 v 1.412755 l -0.9522692,1.35e-4 v -1.412755 c 0,-0.125 -0.125,-0.25 -0.25,-0.25 L 3.6642086,10 c -0.125,0 -0.25,0.125 -0.25,0.25 v 1.837281 c 0,0.125 0.125,0.25 0.25,0.25 H 5.038625 V 13.75 c 0,0.125 0.125,0.25 0.25,0.25 h 0.1729204 c 0.125,0 0.25,-0.125 0.25,-0.25 V 12.337281 H 6.125298 c 0.125,0 0.25,-0.125 0.25,-0.25 v -0.174526 c 0,-0.125 -0.125,-0.25 -0.25,-0.25 H 5.7115454 Z"
         style="display:inline;fill:url(#Outlines);fill-opacity:1;stroke:none;stroke-width:0.5;stroke-opacity:1" />
      <path
         transform="matrix(0.64545352,0,0,0.67235752,-0.48853597,2.6786722)"
         style="display:inline;fill:url(#Outlines);fill-opacity:1;stroke:none;stroke-width:0.6961996;stroke-opacity:1"
         id="path177"
         d="m 20.577263,14.076378 c 0,0.25 -0.25,0.5 -0.5,0.5 h -1.15457 c -0.25,0 -0.5,-0.25 -0.5,-0.5 V 9.923873 c 0,-0.25 0.229974,-0.5 0.5,-0.5 h 1.15457 c 0.25,0 0.5,0.25 0.5,0.5 M 20.076758,8.0760133 h -1.15356 c -1.5,0 -1.846314,0.3478597 -1.846314,1.8478597 v 4.152142 c 0,1 0.346314,1.848041 1.846314,1.848041 h 1.15356 c 1.5,0 1.846314,-0.347678 1.846314,-1.847678 V 9.923873 c 0,-1.5 -0.346314,-1.8478597 -1.846314,-1.8478597 z" />
      <path
         mask="none"
         transform="matrix(1.2933876,0,0,1.3167613,9.9190886,-5.054363)"
         id="path152-5"
         d="m 5.7115454,10.25 c 0,-0.125 -0.125,-0.25 -0.25,-0.25 H 5.288625 c -0.125,0 -0.25,0.125 -0.25,0.25 v 1.412755 l -0.9522692,1.35e-4 v -1.412755 c 0,-0.125 -0.125,-0.25 -0.25,-0.25 L 3.6642086,10 c -0.125,0 -0.25,0.125 -0.25,0.25 v 1.837281 c 0,0.125 0.125,0.25 0.25,0.25 H 5.038625 V 13.75 c 0,0.125 0.125,0.25 0.25,0.25 h 0.1729204 c 0.125,0 0.25,-0.125 0.25,-0.25 V 12.337281 H 6.125298 c 0.125,0 0.25,-0.125 0.25,-0.25 v -0.174526 c 0,-0.125 -0.125,-0.25 -0.25,-0.25 H 5.7115454 Z"
         style="display:inline;fill:url(#Outlines);fill-opacity:1;stroke:none;stroke-width:0.5;stroke-opacity:1" />
    </g>
    <path
       d="m 4,2.0000004 c -0.554,0 -1.0545156,0.2224844 -1.4160156,0.5839844 C 2.2224844,2.9454848 2,3.4460004 2,4.0000004 V 20 c 0,0.554 0.2224844,1.054516 0.5839844,1.416016 C 2.9454844,21.777516 3.446,22 4,22 h 16 c 0.554,0 1.054516,-0.222484 1.416016,-0.583984 C 21.777516,21.054516 22,20.554 22,20 V 4.0000004 C 22,3.4460004 21.777516,2.9454848 21.416016,2.5839848 21.054516,2.2224848 20.554,2.0000004 20,2.0000004 Z m 2,1.5 h 12 c 0.4155,0 0.791375,0.166375 1.0625,0.4375 0.271125,0.271125 0.4375,0.647 0.4375,1.0625 V 17 c 0,0.4155 -0.166375,0.791375 -0.4375,1.0625 C 18.791375,18.333625 18.4155,18.5 18,18.5 H 6 C 5.5845,18.5 5.208625,18.333625 4.9375,18.0625 4.666375,17.791375 4.5,17.4155 4.5,17 V 5.0000004 c 0,-0.4155 0.166375,-0.791375 0.4375,-1.0625 0.271125,-0.271125 0.647,-0.4375 1.0625,-0.4375 z"
       style="display:inline;fill:none;fill-opacity:1;stroke:url(#Outlines);stroke-width:0.5;stroke-miterlimit:4;stroke-dasharray:none;stroke-opacity:1;filter:url(#filter959)"
       id="path942" />
  </g>
</svg>
